<svg width="1535" height="941" viewBox="0 0 1535 941" fill="none" xmlns="http://www.w3.org/2000/svg">
<path d="M295.842 570.377C296.772 613.152 330.558 643.528 382.941 643.528C429.746 643.528 463.222 615.941 463.222 577.506C463.531 534.731 428.506 523.263 392.55 516.753C358.454 510.864 336.137 506.215 336.137 483.897C336.137 463.44 353.185 452.901 377.672 452.901C403.709 452.901 421.997 467.779 424.476 489.787H459.502C457.642 450.731 425.096 422.835 377.672 422.835C332.107 422.835 300.491 448.872 300.491 486.377C300.491 529.462 334.587 540.931 370.543 547.13C404.949 553.329 427.576 558.288 427.576 581.226C427.576 601.993 408.978 613.462 383.251 613.462C352.875 613.462 332.727 596.414 330.868 570.997L295.842 570.377Z" fill="white"/>
<path d="M498.32 598.584C498.32 627.41 511.338 641.668 541.715 641.668H573.951V612.222H548.534C536.445 612.222 532.106 607.572 532.106 595.174V512.414H570.231V482.968H532.106V438.643H498.32V482.968H470.733V512.414H498.32V598.584Z" fill="white"/>
<path d="M710.402 482.968L706.372 506.215C696.144 491.647 679.406 481.108 654.609 481.108C611.524 481.108 579.598 513.344 579.598 562.318C579.598 613.152 611.524 643.528 654.609 643.528C679.406 643.528 696.144 631.75 706.372 617.491L710.092 641.668H739.538V482.968H710.402ZM660.188 615.322C632.291 615.322 614.004 593.624 614.004 562.318C614.004 531.322 632.291 509.624 660.188 509.624C688.085 509.624 706.372 531.632 706.372 562.938C706.372 593.624 688.085 615.322 660.188 615.322Z" fill="white"/>
<path d="M915.454 584.635H881.358C877.329 603.233 863.071 615.012 842.303 615.012C815.336 615.012 797.669 593.314 797.669 562.008C797.669 531.012 815.336 509.624 842.303 509.624C862.451 509.624 876.709 521.403 881.048 539.381H915.454C909.255 503.735 883.218 481.108 843.233 481.108C794.879 481.108 763.263 513.344 763.263 562.008C763.263 610.982 794.569 643.528 842.303 643.528C882.908 643.528 909.255 620.901 915.454 584.635Z" fill="white"/>
<path d="M939.195 424.695V641.668H972.671V601.063L1000.88 571.307L1047.99 641.668H1087.67L1024.75 546.82L1083.95 482.968H1045.2L972.671 560.458V424.695H939.195Z" fill="white"/>
<path d="M1090.95 589.285C1091.88 623.691 1120.7 643.528 1162.86 643.528C1200.98 643.528 1229.5 624.31 1229.5 593.934C1229.5 558.598 1200.05 550.539 1164.41 546.51C1141.78 543.72 1126.59 542.48 1126.59 527.602C1126.59 514.894 1139.61 506.835 1159.14 506.835C1178.67 506.835 1192.61 517.373 1194.16 531.632H1226.71C1224.54 499.086 1197.26 481.108 1158.52 481.108C1121.01 480.798 1094.05 500.325 1094.05 530.392C1094.05 563.248 1122.56 570.687 1158.21 575.026C1182.39 578.126 1196.64 579.676 1196.64 596.414C1196.64 609.432 1182.7 617.491 1162.55 617.491C1139.61 617.491 1124.42 605.713 1123.18 589.285H1090.95Z" fill="white"/>
<path d="M0.0820312 722.01V938.984H35.7277V847.235H120.657V816.548H35.7277V753.626H138.635V722.01H0.0820312Z" fill="white"/>
<path d="M222.959 940.843C271.314 940.843 303.86 908.297 303.86 859.633C303.86 811.279 271.314 778.423 222.959 778.423C174.605 778.423 142.059 811.279 142.059 859.633C142.059 908.297 174.605 940.843 222.959 940.843ZM222.959 912.327C194.753 912.327 176.465 890.32 176.465 859.633C176.465 828.947 194.753 806.94 222.959 806.94C251.166 806.94 269.764 828.947 269.764 859.633C269.764 890.32 251.166 912.327 222.959 912.327Z" fill="white"/>
<path d="M436.475 780.283V859.013C436.475 891.869 420.977 911.707 395.56 911.707C371.073 911.707 358.675 895.279 358.675 864.283V780.283H325.199V867.692C325.199 922.556 354.025 940.843 387.811 940.843C412.298 940.843 426.866 930.925 436.785 918.836L440.505 938.984H469.951V780.283H436.475Z" fill="white"/>
<path d="M583.53 778.423C557.804 778.423 542.615 788.652 532.697 801.05L528.977 780.283H499.841V938.984H533.317V859.013C533.317 826.777 549.125 807.25 575.781 807.25C600.888 807.25 613.597 823.368 613.597 853.434V938.984H647.383V851.574C647.383 796.711 617.626 778.423 583.53 778.423Z" fill="white"/>
<path d="M795.303 722.01V802.29C785.074 788.342 768.026 778.423 743.849 778.423C700.764 778.423 668.838 810.659 668.838 859.633C668.838 910.467 700.764 940.843 743.849 940.843C768.956 940.843 785.384 929.065 795.613 915.117L799.642 938.984H828.779V722.01H795.303ZM749.428 912.637C721.532 912.637 703.244 890.939 703.244 859.633C703.244 828.637 721.532 806.94 749.428 806.94C777.325 806.94 795.613 828.637 795.613 860.253C795.613 890.939 777.325 912.637 749.428 912.637Z" fill="white"/>
<path d="M983.307 780.283L979.277 803.53C969.049 788.962 952.311 778.423 927.514 778.423C884.429 778.423 852.503 810.659 852.503 859.633C852.503 910.467 884.429 940.843 927.514 940.843C952.311 940.843 969.049 929.065 979.277 914.807L982.997 938.984H1012.44V780.283H983.307ZM933.093 912.637C905.196 912.637 886.909 890.939 886.909 859.633C886.909 828.637 905.196 806.94 933.093 806.94C960.99 806.94 979.277 828.947 979.277 860.253C979.277 890.939 960.99 912.637 933.093 912.637Z" fill="white"/>
<path d="M1053.19 895.899C1053.19 924.725 1066.21 938.984 1096.59 938.984H1128.82V909.537H1103.41C1091.32 909.537 1086.98 904.888 1086.98 892.489V809.729H1125.11V780.283H1086.98V735.958H1053.19V780.283H1025.61V809.729H1053.19V895.899Z" fill="white"/>
<path d="M1160.43 717.051C1148.96 717.051 1139.97 725.42 1139.97 737.198C1139.97 748.977 1148.96 757.346 1160.43 757.346C1171.9 757.346 1180.89 748.977 1180.89 737.198C1180.89 725.42 1171.9 717.051 1160.43 717.051ZM1143.69 780.283V938.984H1177.17V780.283H1143.69Z" fill="white"/>
<path d="M1281.89 940.843C1330.25 940.843 1362.79 908.297 1362.79 859.633C1362.79 811.279 1330.25 778.423 1281.89 778.423C1233.54 778.423 1200.99 811.279 1200.99 859.633C1200.99 908.297 1233.54 940.843 1281.89 940.843ZM1281.89 912.327C1253.69 912.327 1235.4 890.32 1235.4 859.633C1235.4 828.947 1253.69 806.94 1281.89 806.94C1310.1 806.94 1328.7 828.947 1328.7 859.633C1328.7 890.32 1310.1 912.327 1281.89 912.327Z" fill="white"/>
<path d="M1470.3 778.423C1444.57 778.423 1429.39 788.652 1419.47 801.05L1415.75 780.283H1386.61V938.984H1420.09V859.013C1420.09 826.777 1435.9 807.25 1462.55 807.25C1487.66 807.25 1500.37 823.368 1500.37 853.434V938.984H1534.15V851.574C1534.15 796.711 1504.4 778.423 1470.3 778.423Z" fill="white"/>
<path fill-rule="evenodd" clip-rule="evenodd" d="M767.05 335.945C859.796 335.945 934.981 260.76 934.981 168.014C934.981 75.2682 859.796 0.0828857 767.05 0.0828857C674.304 0.0828857 599.119 75.2682 599.119 168.014C599.119 260.76 674.304 335.945 767.05 335.945ZM844.131 158.751V140.009H798.115L830.43 91.1499H806L767.094 150.091L728.316 91.1499H703.887L736.201 140.009H690.186V158.881H844.131V158.751ZM829.912 245.095L797.21 195.59H844.131V176.977H690.186V195.719H737.106L704.404 245.095H728.704L767.094 186.929L805.483 245.095H829.912Z" fill="white"/>
</svg>
