<svg width="3606" height="410" viewBox="0 0 3606 410" fill="none" xmlns="http://www.w3.org/2000/svg">
<g filter="url(#filter0_d_3_47)">
<path d="M524 247.306C525.113 298.504 565.552 334.862 628.251 334.862C684.272 334.862 724.34 301.843 724.34 255.839C724.711 204.641 682.788 190.914 639.752 183.123C598.942 176.074 572.23 170.509 572.23 143.797C572.23 119.311 592.635 106.697 621.944 106.697C653.108 106.697 674.997 124.505 677.965 150.846H719.888C717.662 104.1 678.707 70.71 621.944 70.71C567.407 70.71 529.565 101.874 529.565 146.765C529.565 198.334 570.375 212.061 613.411 219.481C654.592 226.901 681.675 232.837 681.675 260.291C681.675 285.148 659.415 298.875 628.622 298.875C592.264 298.875 568.149 278.47 565.923 248.048L524 247.306Z" fill="white"/>
<path d="M766.35 281.067C766.35 315.57 781.932 332.636 818.29 332.636H856.874V297.391H826.452C811.983 297.391 806.789 291.826 806.789 276.986V177.929H852.422V142.684H806.789V89.631H766.35V142.684H733.331V177.929H766.35V281.067Z" fill="white"/>
<path d="M1020.2 142.684L1015.37 170.509C1003.13 153.072 983.095 140.458 953.415 140.458C901.846 140.458 863.633 179.042 863.633 237.66C863.633 298.504 901.846 334.862 953.415 334.862C983.095 334.862 1003.13 320.764 1015.37 303.698L1019.82 332.636H1055.07V142.684H1020.2ZM960.093 301.101C926.703 301.101 904.814 275.131 904.814 237.66C904.814 200.56 926.703 174.59 960.093 174.59C993.483 174.59 1015.37 200.931 1015.37 238.402C1015.37 275.131 993.483 301.101 960.093 301.101Z" fill="white"/>
<path d="M1265.63 264.372H1224.82C1219.99 286.632 1202.93 300.73 1178.07 300.73C1145.79 300.73 1124.65 274.76 1124.65 237.289C1124.65 200.189 1145.79 174.59 1178.07 174.59C1202.19 174.59 1219.25 188.688 1224.45 210.206H1265.63C1258.21 167.541 1227.04 140.458 1179.18 140.458C1121.31 140.458 1083.47 179.042 1083.47 237.289C1083.47 295.907 1120.94 334.862 1178.07 334.862C1226.67 334.862 1258.21 307.779 1265.63 264.372Z" fill="white"/>
<path d="M1294.04 72.936V332.636H1334.11V284.035L1367.87 248.419L1424.26 332.636H1471.75L1396.44 219.11L1467.3 142.684H1420.92L1334.11 235.434V72.936H1294.04Z" fill="white"/>
<path d="M1475.68 269.937C1476.79 311.118 1511.29 334.862 1561.75 334.862C1607.38 334.862 1641.51 311.86 1641.51 275.502C1641.51 233.208 1606.27 223.562 1563.6 218.739C1536.52 215.4 1518.34 213.916 1518.34 196.108C1518.34 180.897 1533.92 171.251 1557.3 171.251C1580.67 171.251 1597.36 183.865 1599.22 200.931H1638.17C1635.58 161.976 1602.93 140.458 1556.55 140.458C1511.66 140.087 1479.39 163.46 1479.39 199.447C1479.39 238.773 1513.52 247.677 1556.18 252.871C1585.12 256.581 1602.19 258.436 1602.19 278.47C1602.19 294.052 1585.49 303.698 1561.38 303.698C1533.92 303.698 1515.74 289.6 1514.26 269.937H1475.68Z" fill="white"/>
<path d="M1765.6 72.936V332.636H1808.26V222.82H1909.92V186.091H1808.26V110.778H1931.43V72.936H1765.6Z" fill="white"/>
<path d="M2032.36 334.862C2090.24 334.862 2129.2 295.907 2129.2 237.66C2129.2 179.784 2090.24 140.458 2032.36 140.458C1974.49 140.458 1935.53 179.784 1935.53 237.66C1935.53 295.907 1974.49 334.862 2032.36 334.862ZM2032.36 300.73C1998.6 300.73 1976.71 274.389 1976.71 237.66C1976.71 200.931 1998.6 174.59 2032.36 174.59C2066.13 174.59 2088.39 200.931 2088.39 237.66C2088.39 274.389 2066.13 300.73 2032.36 300.73Z" fill="white"/>
<path d="M2287.93 142.684V236.918C2287.93 276.244 2269.38 299.988 2238.95 299.988C2209.64 299.988 2194.8 280.325 2194.8 243.225V142.684H2154.74V247.306C2154.74 312.973 2189.24 334.862 2229.68 334.862C2258.99 334.862 2276.42 322.99 2288.3 308.521L2292.75 332.636H2327.99V142.684H2287.93Z" fill="white"/>
<path d="M2463.94 140.458C2433.15 140.458 2414.97 152.701 2403.09 167.541L2398.64 142.684H2363.77V332.636H2403.84V236.918C2403.84 198.334 2422.76 174.961 2454.66 174.961C2484.71 174.961 2499.93 194.253 2499.93 230.24V332.636H2540.36V228.014C2540.36 162.347 2504.75 140.458 2463.94 140.458Z" fill="white"/>
<path d="M2717.41 72.936V169.025C2705.17 152.33 2684.76 140.458 2655.83 140.458C2604.26 140.458 2566.04 179.042 2566.04 237.66C2566.04 298.504 2604.26 334.862 2655.83 334.862C2685.88 334.862 2705.54 320.764 2717.78 304.069L2722.61 332.636H2757.48V72.936H2717.41ZM2662.5 301.101C2629.11 301.101 2607.23 275.131 2607.23 237.66C2607.23 200.56 2629.11 174.59 2662.5 174.59C2695.89 174.59 2717.78 200.56 2717.78 238.402C2717.78 275.131 2695.89 301.101 2662.5 301.101Z" fill="white"/>
<path d="M2942.44 142.684L2937.62 170.509C2925.37 153.072 2905.34 140.458 2875.66 140.458C2824.09 140.458 2785.88 179.042 2785.88 237.66C2785.88 298.504 2824.09 334.862 2875.66 334.862C2905.34 334.862 2925.37 320.764 2937.62 303.698L2942.07 332.636H2977.31V142.684H2942.44ZM2882.34 301.101C2848.95 301.101 2827.06 275.131 2827.06 237.66C2827.06 200.56 2848.95 174.59 2882.34 174.59C2915.73 174.59 2937.62 200.931 2937.62 238.402C2937.62 275.131 2915.73 301.101 2882.34 301.101Z" fill="white"/>
<path d="M3026.09 281.067C3026.09 315.57 3041.67 332.636 3078.03 332.636H3116.61V297.391H3086.19C3071.72 297.391 3066.53 291.826 3066.53 276.986V177.929H3112.16V142.684H3066.53V89.631H3026.09V142.684H2993.07V177.929H3026.09V281.067Z" fill="white"/>
<path d="M3154.44 67C3140.71 67 3129.95 77.017 3129.95 91.115C3129.95 105.213 3140.71 115.23 3154.44 115.23C3168.17 115.23 3178.93 105.213 3178.93 91.115C3178.93 77.017 3168.17 67 3154.44 67ZM3134.41 142.684V332.636H3174.47V142.684H3134.41Z" fill="white"/>
<path d="M3299.82 334.862C3357.7 334.862 3396.65 295.907 3396.65 237.66C3396.65 179.784 3357.7 140.458 3299.82 140.458C3241.95 140.458 3202.99 179.784 3202.99 237.66C3202.99 295.907 3241.95 334.862 3299.82 334.862ZM3299.82 300.73C3266.06 300.73 3244.17 274.389 3244.17 237.66C3244.17 200.931 3266.06 174.59 3299.82 174.59C3333.58 174.59 3355.84 200.931 3355.84 237.66C3355.84 274.389 3333.58 300.73 3299.82 300.73Z" fill="white"/>
<path d="M3525.33 140.458C3494.54 140.458 3476.36 152.701 3464.49 167.541L3460.04 142.684H3425.16V332.636H3465.23V236.918C3465.23 198.334 3484.15 174.961 3516.06 174.961C3546.11 174.961 3561.32 194.253 3561.32 230.24V332.636H3601.76V228.014C3601.76 162.347 3566.14 140.458 3525.33 140.458Z" fill="white"/>
<path fill-rule="evenodd" clip-rule="evenodd" d="M205 402C316.009 402 406 312.009 406 201C406 89.9908 316.009 0 205 0C93.9908 0 4 89.9908 4 201C4 312.009 93.9908 402 205 402ZM297.26 189.913V167.48H242.183L280.861 109H251.62L205.053 179.548L158.64 109H129.399L168.077 167.48H113V190.068H297.26V189.913ZM280.242 293.26L241.1 234.006H297.26V211.728H113V234.161H169.16L130.018 293.26H159.104L205.053 223.64L251.002 293.26H280.242Z" fill="white"/>
</g>
<defs>
<filter id="filter0_d_3_47" x="0" y="0" width="3605.76" height="410" filterUnits="userSpaceOnUse" color-interpolation-filters="sRGB">
<feFlood flood-opacity="0" result="BackgroundImageFix"/>
<feColorMatrix in="SourceAlpha" type="matrix" values="0 0 0 0 0 0 0 0 0 0 0 0 0 0 0 0 0 0 127 0" result="hardAlpha"/>
<feOffset dy="4"/>
<feGaussianBlur stdDeviation="2"/>
<feComposite in2="hardAlpha" operator="out"/>
<feColorMatrix type="matrix" values="0 0 0 0 0 0 0 0 0 0 0 0 0 0 0 0 0 0 0.25 0"/>
<feBlend mode="normal" in2="BackgroundImageFix" result="effect1_dropShadow_3_47"/>
<feBlend mode="normal" in="SourceGraphic" in2="effect1_dropShadow_3_47" result="shape"/>
</filter>
</defs>
</svg>
